<svg xmlns="http://www.w3.org/2000/svg" width="393" height="852" viewBox="0 0 393 852"><defs>
<filter id="pillsh" x="-10%" y="-30%" width="120%" height="180%"><feDropShadow dx="0" dy="8" stdDeviation="9" flood-color="#141414" flood-opacity="0.18"/></filter>
<filter id="cardsh" x="-5%" y="-10%" width="110%" height="130%"><feDropShadow dx="0" dy="2" stdDeviation="5" flood-color="#141414" flood-opacity="0.04"/></filter>
<linearGradient id="lead" x1="0" x2="1"><stop offset="0" stop-color="#FF7A3D"/><stop offset="1" stop-color="#FF5CA8"/></linearGradient>
<linearGradient id="photo" x1="0" y1="0" x2="1" y2="1"><stop offset="0" stop-color="#D9C3A5"/><stop offset="1" stop-color="#8C7B66"/></linearGradient>
<linearGradient id="photo2" x1="0" y1="0" x2="1" y2="1"><stop offset="0" stop-color="#E9B08A"/><stop offset="1" stop-color="#8A4A3A"/></linearGradient>
<linearGradient id="dim" x1="0" y1="0" x2="0" y2="1"><stop offset="0" stop-color="#141414" stop-opacity="0"/><stop offset="1" stop-color="#141414" stop-opacity="0.75"/></linearGradient>
</defs><g id="02 Trip group view"><clipPath id="c1557809645970579853"><rect width="393" height="852" rx="44"/></clipPath><g clip-path="url(#c1557809645970579853)"><rect x="0" y="0" width="393" height="852" rx="0" fill="#F7F3EC" /><text x="34" y="40" font-family="Figtree" font-size="16" font-weight="700" fill="#141414" text-anchor="start" font-style="normal" >9:41</text><rect x="150" y="20" width="92" height="26" rx="13" fill="#141414" /><path d="M318 38 h3 v-5 h-3z M323 38 h3 v-8 h-3z M328 38 h3 v-11 h-3z M333 38 h3 v-14 h-3z" fill="#141414"/><rect x="344" y="27" width="22" height="11" rx="3.5" fill="none" stroke="#141414" stroke-width="1.2" /><rect x="346" y="29" width="15" height="7" rx="2" fill="#141414" /><rect x="367" y="30" width="2" height="5" rx="1" fill="#141414" /><circle cx="30" cy="80" r="17" fill="#fff"/><path d="M37 80 h-14 M28 75 l-5 5 5 5" fill="none" stroke="#141414" stroke-width="2" stroke-linecap="round" stroke-linejoin="round"/><circle cx="363" cy="80" r="17" fill="#fff"/><path d="M357 83 v-5 a6 6 0 0 1 12 0 v5 l2 3 h-16 z M361 88 a2 2 0 0 0 4 0" fill="none" stroke="#141414" stroke-width="1.6" stroke-linejoin="round"/><text x="20" y="127" font-family="Newsreader" font-size="38" font-weight="400" fill="#141414" text-anchor="start" font-style="normal" >Last night in</text><text x="20" y="167" font-family="Newsreader" font-size="38" font-weight="400" fill="#8A837A" text-anchor="start" font-style="normal" >Lisbon</text><rect x="20" y="188" width="353" height="96" rx="20" fill="url(#photo)" /><text x="196.5" y="240.0" font-family="Figtree" font-size="11" font-weight="600" fill="#fff" text-anchor="middle" font-style="normal" opacity="0.8"></text><rect x="20" y="188" width="353" height="96" rx="20" fill="url(#dim)" /><text x="34" y="258" font-family="Figtree" font-size="13" font-weight="700" fill="#fff" text-anchor="start" font-style="normal" >Nic</text><rect x="58" y="247" width="68" height="15" rx="4" fill="#fff" opacity="0.92"/><text x="92" y="258" font-family="Figtree" font-size="9" font-weight="700" fill="#141414" text-anchor="middle" font-style="normal" letter-spacing="0.6">ORGANIZER</text><text x="132" y="258" font-family="Figtree" font-size="13" font-weight="500" fill="#fff" text-anchor="start" font-style="normal" >· Ari · Maya · Theo · Sam</text><text x="34" y="232" font-family="Figtree" font-size="11" font-weight="500" fill="#fff" text-anchor="start" font-style="normal" opacity="0.8">5 friends · Ren joins tonight</text><g><circle cx="246.0" cy="228.0" r="14.0" fill="#FFB48A" stroke="#4a4038" stroke-width="2.5"/><text x="246.0" y="232.76" font-family="Figtree" font-size="11.76" font-weight="700" fill="#141414" text-anchor="middle" font-style="normal" >A</text></g><g><circle cx="264.0" cy="228.0" r="14.0" fill="#FFD9A8" stroke="#4a4038" stroke-width="2.5"/><text x="264.0" y="232.76" font-family="Figtree" font-size="11.76" font-weight="700" fill="#141414" text-anchor="middle" font-style="normal" >N</text></g><g><circle cx="282.0" cy="228.0" r="14.0" fill="#BFE6D2" stroke="#4a4038" stroke-width="2.5"/><text x="282.0" y="232.76" font-family="Figtree" font-size="11.76" font-weight="700" fill="#141414" text-anchor="middle" font-style="normal" >M</text></g><g><circle cx="300.0" cy="228.0" r="14.0" fill="#C9D8FF" stroke="#4a4038" stroke-width="2.5"/><text x="300.0" y="232.76" font-family="Figtree" font-size="11.76" font-weight="700" fill="#141414" text-anchor="middle" font-style="normal" >T</text></g><g><circle cx="318.0" cy="228.0" r="14.0" fill="#F9C4DF" stroke="#4a4038" stroke-width="2.5"/><text x="318.0" y="232.76" font-family="Figtree" font-size="11.76" font-weight="700" fill="#141414" text-anchor="middle" font-style="normal" >S</text></g><circle cx="336" cy="228" r="14" fill="none" stroke="#fff" stroke-width="1.5" stroke-dasharray="3 3"/><text x="336" y="233" font-family="Figtree" font-size="16" font-weight="400" fill="#fff" text-anchor="middle" font-style="normal" >+</text><rect x="20" y="296" width="353" height="140" rx="22" fill="#F1EBE2" /><text x="196" y="327" font-family="Figtree" font-size="17" font-weight="700" fill="#141414" text-anchor="middle" font-style="normal" >Dinner tonight is still open</text><text x="196" y="349" font-family="Figtree" font-size="13" font-weight="400" fill="#5C5750" text-anchor="middle" font-style="normal" >Three places from the group&#x27;s wishlist, ready to poll.</text><rect x="36" y="368" width="321" height="52" rx="999" fill="#141414" filter="url(#pillsh)"/><text x="58" y="399.0" font-family="Figtree" font-size="15" font-weight="700" fill="#fff" text-anchor="start" font-style="normal" >Start the poll</text><circle cx="329" cy="394.0" r="14" fill="#fff"/><path d="M323 394.0 h12 M330 389.0 l5 5 -5 5" fill="none" stroke="#141414" stroke-width="1.8" stroke-linecap="round" stroke-linejoin="round"/><text x="20" y="472" font-family="Figtree" font-size="17" font-weight="700" fill="#141414" text-anchor="start" font-style="normal" >Today</text><text x="373" y="472" font-family="Figtree" font-size="13" font-weight="400" fill="#8A837A" text-anchor="end" font-style="normal" >Full plan</text><rect x="20" y="486" width="353" height="70" rx="20" fill="#fff" filter="url(#cardsh)"/><circle cx="57" cy="521" r="23" fill="#DDEFE4"/><text x="57" y="525" font-family="Figtree" font-size="11" font-weight="700" fill="#2F7D5B" text-anchor="middle" font-style="normal" >10:00</text><text x="92" y="517" font-family="Figtree" font-size="13" font-weight="400" fill="#8A837A" text-anchor="start" font-style="normal" >Sightseeing</text><text x="92" y="536" font-family="Figtree" font-size="15" font-weight="700" fill="#141414" text-anchor="start" font-style="normal" >Torre de Belém</text><circle cx="342" cy="521" r="17" fill="#141414"/><path d="M336.6 521 h12 M342.9 516.5 l5 5 -5 5" fill="none" stroke="#fff" stroke-width="1.62" stroke-linecap="round" stroke-linejoin="round"/><rect x="20" y="568" width="353" height="70" rx="20" fill="#fff" filter="url(#cardsh)"/><circle cx="57" cy="603" r="23" fill="#FFE2C9"/><text x="57" y="607" font-family="Figtree" font-size="11" font-weight="700" fill="#E0562E" text-anchor="middle" font-style="normal" >14:00</text><text x="92" y="599" font-family="Figtree" font-size="13" font-weight="400" fill="#8A837A" text-anchor="start" font-style="normal" >Lunch</text><text x="92" y="618" font-family="Figtree" font-size="15" font-weight="700" fill="#141414" text-anchor="start" font-style="normal" >LX Factory</text><circle cx="342" cy="603" r="17" fill="#141414"/><path d="M336.6 603 h12 M342.9 598.5 l5 5 -5 5" fill="none" stroke="#fff" stroke-width="1.62" stroke-linecap="round" stroke-linejoin="round"/><text x="92" y="618" font-family="Figtree" font-size="15" font-weight="700" fill="#141414" text-anchor="start" font-style="normal" >LX Factory</text><text x="180" y="618" font-family="Figtree" font-size="1" font-weight="400" fill="#141414" text-anchor="start" font-style="normal" ></text><rect x="20" y="650" width="353" height="70" rx="20" fill="#fff" filter="url(#cardsh)"/><circle cx="57" cy="685" r="23" fill="#E3E9FF"/><text x="57" y="690" font-family="Figtree" font-size="15" font-weight="700" fill="#3B5BB5" text-anchor="middle" font-style="normal" >€</text><text x="92" y="676" font-family="Figtree" font-size="13" font-weight="400" fill="#8A837A" text-anchor="start" font-style="normal" >Trip money</text><text x="92" y="694" font-family="Figtree" font-size="15" font-weight="700" fill="#141414" text-anchor="start" font-style="normal" >You&#x27;re owed €42</text><text x="92" y="710" font-family="Figtree" font-size="12" font-weight="400" fill="#8A837A" text-anchor="start" font-style="normal" >Settle with Apple Pay or Revolut</text><circle cx="342" cy="685" r="17" fill="#141414"/><path d="M336.6 685 h12 M342.9 680.5 l5 5 -5 5" fill="none" stroke="#fff" stroke-width="1.62" stroke-linecap="round" stroke-linejoin="round"/><text x="190" y="618" font-family="Figtree" font-size="1" font-weight="400" fill="#141414" text-anchor="start" font-style="normal" ></text><rect x="0" y="770" width="393" height="82" rx="0" fill="#F7F3EC" /><line x1="0" y1="770" x2="393" y2="770" stroke="#EAE3D8"/><path transform="translate(49.125,796)" d="M-9 4 l9 -9 9 9 v9 h-18z" fill="#141414" stroke="#141414" stroke-width="1.6" stroke-linejoin="round"/><text x="49.125" y="826" font-family="Figtree" font-size="11" font-weight="700" fill="#141414" text-anchor="middle" font-style="normal" >Trips</text><path transform="translate(147.375,796)" d="M-9 -5 h18 v14 h-18z M-4 -9 h8 M0 -9 v6" fill="none" stroke="#141414" stroke-width="1.6" stroke-linejoin="round"/><text x="147.375" y="826" font-family="Figtree" font-size="11" font-weight="500" fill="#141414" text-anchor="middle" font-style="normal" >Polls</text><path transform="translate(245.625,796)" d="M-9 -7 h18 v16 h-18z M-9 -2 h18" fill="none" stroke="#141414" stroke-width="1.6" stroke-linejoin="round"/><text x="245.625" y="826" font-family="Figtree" font-size="11" font-weight="500" fill="#141414" text-anchor="middle" font-style="normal" >Plan</text><path transform="translate(343.875,796)" d="M-9 -6 h18 v14 h-18z M3 0 h6" fill="none" stroke="#141414" stroke-width="1.6" stroke-linejoin="round"/><text x="343.875" y="826" font-family="Figtree" font-size="11" font-weight="500" fill="#141414" text-anchor="middle" font-style="normal" >Money</text><rect x="129" y="838" width="135" height="5" rx="3" fill="#141414" opacity="0.9"/></g><rect width="393" height="852" rx="44" fill="none" stroke="#D9D2C6"/></g></svg>